<svg width="190" height="85" viewBox="0 0 190 85" fill="none" xmlns="http://www.w3.org/2000/svg">
<circle cx="147.5" cy="42.5" r="42.5" fill="#3461FF"/>
<path fill-rule="evenodd" clip-rule="evenodd" d="M135.25 42.5001C135.25 42.9062 135.412 43.2957 135.699 43.5829C135.986 43.87 136.375 44.0314 136.782 44.0314H154.523L147.947 50.6035C147.805 50.7458 147.692 50.9149 147.615 51.1009C147.538 51.2869 147.498 51.4863 147.498 51.6876C147.498 51.8889 147.538 52.0883 147.615 52.2743C147.692 52.4603 147.805 52.6294 147.947 52.7717C148.09 52.9141 148.259 53.027 148.445 53.1041C148.631 53.1811 148.83 53.2208 149.032 53.2208C149.233 53.2208 149.432 53.1811 149.618 53.1041C149.804 53.027 149.973 52.9141 150.116 52.7717L159.303 43.5842C159.446 43.442 159.559 43.273 159.636 43.087C159.713 42.9009 159.753 42.7015 159.753 42.5001C159.753 42.2987 159.713 42.0993 159.636 41.9132C159.559 41.7272 159.446 41.5582 159.303 41.416L150.116 32.2285C149.828 31.941 149.438 31.7794 149.032 31.7794C148.625 31.7794 148.235 31.941 147.947 32.2285C147.66 32.516 147.498 32.906 147.498 33.3126C147.498 33.7192 147.66 34.1092 147.947 34.3967L154.523 40.9689H136.782C136.375 40.9689 135.986 41.1302 135.699 41.4173C135.412 41.7045 135.25 42.094 135.25 42.5001Z" fill="white"/>
<circle cx="42.5" cy="42.5" r="42.5" fill="#F8F9FF"/>
<path fill-rule="evenodd" clip-rule="evenodd" d="M54.7497 42.5001C54.7497 42.9062 54.5884 43.2957 54.3013 43.5829C54.0141 43.87 53.6246 44.0314 53.2185 44.0314H35.4774L42.0526 50.6035C42.195 50.7458 42.3079 50.9149 42.385 51.1009C42.462 51.2869 42.5017 51.4863 42.5017 51.6876C42.5017 51.8889 42.462 52.0883 42.385 52.2743C42.3079 52.4603 42.195 52.6294 42.0526 52.7717C41.9103 52.9141 41.7412 53.027 41.5552 53.1041C41.3692 53.1811 41.1698 53.2208 40.9685 53.2208C40.7672 53.2208 40.5678 53.1811 40.3818 53.1041C40.1958 53.027 40.0267 52.9141 39.8844 52.7717L30.6969 43.5842C30.5543 43.442 30.4411 43.273 30.3639 43.087C30.2867 42.9009 30.247 42.7015 30.247 42.5001C30.247 42.2987 30.2867 42.0993 30.3639 41.9132C30.4411 41.7272 30.5543 41.5582 30.6969 41.416L39.8844 32.2285C40.1719 31.941 40.5619 31.7794 40.9685 31.7794C41.3751 31.7794 41.7651 31.941 42.0526 32.2285C42.3401 32.516 42.5017 32.906 42.5017 33.3126C42.5017 33.7192 42.3401 34.1092 42.0526 34.3967L35.4774 40.9689H53.2185C53.6246 40.9689 54.0141 41.1302 54.3013 41.4173C54.5884 41.7045 54.7497 42.094 54.7497 42.5001Z" fill="#A5A5A5"/>
</svg>
